<svg xmlns="http://www.w3.org/2000/svg" xmlns:xlink="http://www.w3.org/1999/xlink" width="1239" height="463" contentScriptType="application/ecmascript" contentStyleType="text/css" style="width:1239px;height:463px" preserveAspectRatio="none" version="1.1" viewBox="0 0 1239 463" zoomAndPan="magnify"><defs><filter id="f1q5jgw9h9s18l" width="300%" height="300%" x="-1" y="-1"><feGaussianBlur result="blurOut" stdDeviation="2"/><feColorMatrix in="blurOut" result="blurOut2" type="matrix" values="0 0 0 0 0 0 0 0 0 0 0 0 0 0 0 0 0 0 .4 0"/><feOffset dx="4" dy="4" in="blurOut2" result="blurOut3"/><feBlend in="SourceGraphic" in2="blurOut3" mode="normal"/></filter></defs><g><polygon fill="#FFF" points="529 185 624 185 631 207.488 968 207.488 968 256 529 256 529 185" filter="url(#f1q5jgw9h9s18l)" style="stroke:#000;stroke-width:1.5"/><line style="stroke:#000;stroke-width:1.5" x1="529" x2="631" y1="207.488" y2="207.488"/><text x="533" y="200.535" fill="#000" font-family="sans-serif" font-size="14" font-weight="bold" lengthAdjust="spacingAndGlyphs" textLength="89">Linux Builds</text><polygon fill="#FFF" points="136 89 257 89 264 111.488 665 111.488 665 160 136 160 136 89" filter="url(#f1q5jgw9h9s18l)" style="stroke:#000;stroke-width:1.5"/><line style="stroke:#000;stroke-width:1.5" x1="136" x2="264" y1="111.488" y2="111.488"/><text x="140" y="104.535" fill="#000" font-family="sans-serif" font-size="14" font-weight="bold" lengthAdjust="spacingAndGlyphs" textLength="115">Windows Builds</text><polygon fill="#FFF" points="436 281 699 281 706 303.488 875 303.488 875 352 436 352 436 281" filter="url(#f1q5jgw9h9s18l)" style="stroke:#000;stroke-width:1.5"/><line style="stroke:#000;stroke-width:1.5" x1="436" x2="706" y1="303.488" y2="303.488"/><text x="440" y="296.535" fill="#000" font-family="sans-serif" font-size="14" font-weight="bold" lengthAdjust="spacingAndGlyphs" textLength="257">Linux Package Scanning and Upload</text><polygon fill="#FFF" points="980 185 1189 185 1196 207.488 1199 207.488 1199 256 980 256 980 185" filter="url(#f1q5jgw9h9s18l)" style="stroke:#000;stroke-width:1.5"/><line style="stroke:#000;stroke-width:1.5" x1="980" x2="1196" y1="207.488" y2="207.488"/><text x="984" y="200.535" fill="#000" font-family="sans-serif" font-size="14" font-weight="bold" lengthAdjust="spacingAndGlyphs" textLength="203">Package Signing and Upload</text><polygon fill="#FFF" points="883 281 1193 281 1200 303.488 1203 303.488 1203 352 883 352 883 281" filter="url(#f1q5jgw9h9s18l)" style="stroke:#000;stroke-width:1.5"/><line style="stroke:#000;stroke-width:1.5" x1="883" x2="1200" y1="303.488" y2="303.488"/><text x="887" y="296.535" fill="#000" font-family="sans-serif" font-size="14" font-weight="bold" lengthAdjust="spacingAndGlyphs" textLength="304">Create &amp; Upload FxDependent DotNet SDK</text><rect style="stroke:#a80036;stroke-width:1.5" width="46" height="36.488" x="636" y="212" fill="#FEFECE" filter="url(#f1q5jgw9h9s18l)"/><text x="646" y="235.535" fill="#000" font-family="sans-serif" font-size="14" lengthAdjust="spacingAndGlyphs" textLength="26">DEB</text><rect style="stroke:#a80036;stroke-width:1.5" width="49" height="36.488" x="717.5" y="212" fill="#FEFECE" filter="url(#f1q5jgw9h9s18l)"/><text x="727.5" y="235.535" fill="#000" font-family="sans-serif" font-size="14" lengthAdjust="spacingAndGlyphs" textLength="29">RPM</text><rect style="stroke:#a80036;stroke-width:1.5" width="64" height="36.488" x="537" y="212" fill="#FEFECE" filter="url(#f1q5jgw9h9s18l)"/><text x="547" y="235.535" fill="#000" font-family="sans-serif" font-size="14" lengthAdjust="spacingAndGlyphs" textLength="44">Alpine</text><rect style="stroke:#a80036;stroke-width:1.5" width="158" height="36.488" x="802" y="212" fill="#FEFECE" filter="url(#f1q5jgw9h9s18l)"/><text x="812" y="235.535" fill="#000" font-family="sans-serif" font-size="14" lengthAdjust="spacingAndGlyphs" textLength="138">Linux-FxDependent</text><rect style="stroke:#a80036;stroke-width:1.5" width="47" height="36.488" x="226.5" y="116" fill="#FEFECE" filter="url(#f1q5jgw9h9s18l)"/><text x="236.5" y="139.535" fill="#000" font-family="sans-serif" font-size="14" lengthAdjust="spacingAndGlyphs" textLength="27">x64</text><rect style="stroke:#a80036;stroke-width:1.5" width="47" height="36.488" x="144.5" y="116" fill="#FEFECE" filter="url(#f1q5jgw9h9s18l)"/><text x="154.5" y="139.535" fill="#000" font-family="sans-serif" font-size="14" lengthAdjust="spacingAndGlyphs" textLength="27">x86</text><rect style="stroke:#a80036;stroke-width:1.5" width="65" height="36.488" x="556.5" y="116" fill="#FEFECE" filter="url(#f1q5jgw9h9s18l)"/><text x="566.5" y="139.535" fill="#000" font-family="sans-serif" font-size="14" lengthAdjust="spacingAndGlyphs" textLength="45">arm32</text><rect style="stroke:#a80036;stroke-width:1.5" width="65" height="36.488" x="456.5" y="116" fill="#FEFECE" filter="url(#f1q5jgw9h9s18l)"/><text x="466.5" y="139.535" fill="#000" font-family="sans-serif" font-size="14" lengthAdjust="spacingAndGlyphs" textLength="45">arm64</text><rect style="stroke:#a80036;stroke-width:1.5" width="112" height="36.488" x="309" y="116" fill="#FEFECE" filter="url(#f1q5jgw9h9s18l)"/><text x="319" y="139.535" fill="#000" font-family="sans-serif" font-size="14" lengthAdjust="spacingAndGlyphs" textLength="92">FxDependent</text><rect style="stroke:#a80036;stroke-width:1.5" width="46" height="36.488" x="543" y="308" fill="#FEFECE" filter="url(#f1q5jgw9h9s18l)"/><text x="553" y="331.535" fill="#000" font-family="sans-serif" font-size="14" lengthAdjust="spacingAndGlyphs" textLength="26">DEB</text><rect style="stroke:#a80036;stroke-width:1.5" width="49" height="36.488" x="624.5" y="308" fill="#FEFECE" filter="url(#f1q5jgw9h9s18l)"/><text x="634.5" y="331.535" fill="#000" font-family="sans-serif" font-size="14" lengthAdjust="spacingAndGlyphs" textLength="29">RPM</text><rect style="stroke:#a80036;stroke-width:1.5" width="64" height="36.488" x="444" y="308" fill="#FEFECE" filter="url(#f1q5jgw9h9s18l)"/><text x="454" y="331.535" fill="#000" font-family="sans-serif" font-size="14" lengthAdjust="spacingAndGlyphs" textLength="44">Alpine</text><rect style="stroke:#a80036;stroke-width:1.5" width="158" height="36.488" x="709" y="308" fill="#FEFECE" filter="url(#f1q5jgw9h9s18l)"/><text x="719" y="331.535" fill="#000" font-family="sans-serif" font-size="14" lengthAdjust="spacingAndGlyphs" textLength="138">Linux-FxDependent</text><rect style="stroke:#a80036;stroke-width:1.5" width="67" height="36.488" x="1115.5" y="212" fill="#FEFECE" filter="url(#f1q5jgw9h9s18l)"/><text x="1125.5" y="235.535" fill="#000" font-family="sans-serif" font-size="14" lengthAdjust="spacingAndGlyphs" textLength="47">macOS</text><rect style="stroke:#a80036;stroke-width:1.5" width="81" height="36.488" x="995.5" y="212" fill="#FEFECE" filter="url(#f1q5jgw9h9s18l)"/><text x="1005.5" y="235.535" fill="#000" font-family="sans-serif" font-size="14" lengthAdjust="spacingAndGlyphs" textLength="61">Windows</text><rect style="stroke:#a80036;stroke-width:1.5" width="58" height="36.488" x="902" y="308" fill="#FEFECE" filter="url(#f1q5jgw9h9s18l)"/><text x="912" y="331.535" fill="#000" font-family="sans-serif" font-size="14" lengthAdjust="spacingAndGlyphs" textLength="38">Linux</text><rect style="stroke:#a80036;stroke-width:1.5" width="81" height="36.488" x="995.5" y="308" fill="#FEFECE" filter="url(#f1q5jgw9h9s18l)"/><text x="1005.5" y="331.535" fill="#000" font-family="sans-serif" font-size="14" lengthAdjust="spacingAndGlyphs" textLength="61">Windows</text><rect style="stroke:#a80036;stroke-width:1.5" width="105" height="36.488" x="1055.5" y="116" fill="#FEFECE" filter="url(#f1q5jgw9h9s18l)"/><text x="1065.5" y="139.535" fill="#000" font-family="sans-serif" font-size="14" lengthAdjust="spacingAndGlyphs" textLength="85">macOS Build</text><rect style="stroke:#a80036;stroke-width:1.5" width="184" height="36.488" x="6" y="308" fill="#FEFECE" filter="url(#f1q5jgw9h9s18l)"/><text x="16" y="331.535" fill="#000" font-family="sans-serif" font-size="14" lengthAdjust="spacingAndGlyphs" textLength="164">ComponentRegistration</text><rect style="stroke:#a80036;stroke-width:1.5" width="101" height="36.488" x="249.5" y="212" fill="#FEFECE" filter="url(#f1q5jgw9h9s18l)"/><text x="259.5" y="235.535" fill="#000" font-family="sans-serif" font-size="14" lengthAdjust="spacingAndGlyphs" textLength="81">Compliance</text><ellipse cx="649" cy="420" fill="#FEFECE" filter="url(#f1q5jgw9h9s18l)" rx="12" ry="12" style="stroke:#a80036;stroke-width:2"/><polygon fill="#A80036" points="645 408 651 403 649 408 651 413 645 408" style="stroke:#a80036;stroke-width:1"/><text x="628.5" y="449.535" fill="#000" font-family="sans-serif" font-size="14" lengthAdjust="spacingAndGlyphs" textLength="41">Finish</text><ellipse cx="589" cy="24" fill="#FEFECE" filter="url(#f1q5jgw9h9s18l)" rx="12" ry="12" style="stroke:#a80036;stroke-width:2"/><polygon fill="#A80036" points="585 12 591 7 589 12 591 17 585 12" style="stroke:#a80036;stroke-width:1"/><text x="573" y="53.535" fill="#000" font-family="sans-serif" font-size="14" lengthAdjust="spacingAndGlyphs" textLength="32">Start</text><path id="BuildDEB-UploadDEB" fill="none" d="M639.9732,248.162 C630.0178,257.7895 617.7061,269.8928 607,281 C599.9449,288.3194 592.4033,296.4914 585.7368,303.8419" style="stroke:#a80036;stroke-width:1"/><polygon fill="#A80036" points="582.132 307.83 591.134 303.836 585.485 304.121 585.199 298.471 582.132 307.83" style="stroke:#a80036;stroke-width:1"/><path id="BuildRPM-UploadRPM" fill="none" d="M723.8912,248.3571 C714.3696,258.038 702.5208,270.1302 692,281 C684.7713,288.4685 676.9042,296.6775 669.8989,304.0162" style="stroke:#a80036;stroke-width:1"/><polygon fill="#A80036" points="666.105 307.994 675.212 304.242 669.556 304.375 669.423 298.72 666.105 307.994" style="stroke:#a80036;stroke-width:1"/><path id="BuildLinuxFx-UploadLinuxFx" fill="none" d="M863.5074,248.0569 C848.1474,263.9124 825.7566,287.0255 809.3456,303.9658" style="stroke:#a80036;stroke-width:1"/><polygon fill="#A80036" points="805.73 307.698 814.865 304.017 809.209 304.106 809.119 298.45 805.73 307.698" style="stroke:#a80036;stroke-width:1"/><path id="BuildAlpine-UploadAlpine" fill="none" d="M551.5074,248.0569 C536.1474,263.9124 513.7566,287.0255 497.3456,303.9658" style="stroke:#a80036;stroke-width:1"/><polygon fill="#A80036" points="493.73 307.698 502.865 304.017 497.209 304.106 497.119 298.45 493.73 307.698" style="stroke:#a80036;stroke-width:1"/><path id="BuildMac-SignMac" fill="none" d="M1115.7118,152.0569 C1122.3127,167.5126 1131.8589,189.8647 1139.0375,206.6731" style="stroke:#a80036;stroke-width:1"/><polygon fill="#A80036" points="1141.183 211.698 1141.327 201.85 1139.219 207.1 1133.97 204.992 1141.183 211.698" style="stroke:#a80036;stroke-width:1"/><path id="WinBuilds-SignWin" fill="none" d="M665.2011,134.7723 C665.5768,134.8084 665.9644,134.8457 666.3638,134.8842 C667.9613,135.0382 669.7474,135.2117 671.7093,135.4042 C679.5572,136.1741 690.2202,137.2475 702.8986,138.5918 C728.2554,141.2803 761.6736,145.0525 796.7543,149.6472 C866.9158,158.8368 943.7277,171.3168 976,185 C989.3346,190.6538 1002.4091,199.8902 1012.9319,208.5285" style="stroke:#a80036;stroke-width:1"/><polygon fill="#A80036" points="1016.982 211.927 1012.659 203.078 1013.152 208.713 1007.517 209.206 1016.982 211.927" style="stroke:#a80036;stroke-width:1"/><path id="BuildWinX86-Compliance" fill="none" d="M191.599,151.1629 C213.6592,167.2067 246.6794,191.2214 270.4762,208.5282" style="stroke:#a80036;stroke-width:1"/><polygon fill="#A80036" points="274.808 211.678 269.882 203.15 270.764 208.737 265.176 209.62 274.808 211.678" style="stroke:#a80036;stroke-width:1"/><path id="BuildWinX64-Compliance" fill="none" d="M259.4046,152.0569 C267.5239,167.6459 279.2972,190.2506 288.0763,207.1065" style="stroke:#a80036;stroke-width:1"/><polygon fill="#A80036" points="290.468 211.698 289.858 201.868 288.158 207.263 282.762 205.563 290.468 211.698" style="stroke:#a80036;stroke-width:1"/><path id="BuildWinFx-Compliance" fill="none" d="M352.774,152.0569 C342.1287,167.7791 326.6517,190.6375 315.209,207.5375" style="stroke:#a80036;stroke-width:1"/><polygon fill="#A80036" points="312.392 211.698 320.75 206.488 315.195 207.557 314.126 202.003 312.392 211.698" style="stroke:#a80036;stroke-width:1"/><path id="BuildLinuxFx-BuildLinuxFxSdk" fill="none" d="M890.4046,248.0569 C898.5239,263.6459 910.2972,286.2506 919.0763,303.1065" style="stroke:#a80036;stroke-width:1"/><polygon fill="#A80036" points="921.468 307.698 920.858 297.868 919.158 303.263 913.763 301.563 921.468 307.698" style="stroke:#a80036;stroke-width:1"/><path id="SignWin-BuildWinFxSdk" fill="none" d="M1036,248.0569 C1036,263.5126 1036,285.8647 1036,302.6731" style="stroke:#a80036;stroke-width:1"/><polygon fill="#A80036" points="1036 307.698 1040 298.698 1036 302.698 1032 298.698 1036 307.698" style="stroke:#a80036;stroke-width:1"/><path id="Compliance-Finish" fill="none" d="M314.6615,248.2823 C336.6845,274.639 380.7845,323.2909 428,352 C495.2555,392.8943 587.4927,415.4534 628.2253,423.9819" style="stroke:#a80036;stroke-width:1;stroke-dasharray:1,3"/><path id="UploadAlpine-Finish" fill="none" d="M506.5307,344.0008 C541.4513,364.5898 597.6995,397.7534 628.0191,415.6297" style="stroke:#a80036;stroke-width:1;stroke-dasharray:1,3"/><path id="UploadDEB-Finish" fill="none" d="M580.8387,344.2356 C594.361,360.8532 614.4323,385.5192 629.2956,403.785" style="stroke:#a80036;stroke-width:1;stroke-dasharray:1,3"/><path id="UploadRPM-Finish" fill="none" d="M649,344.2356 C649,360.8532 649,385.5192 649,403.785" style="stroke:#a80036;stroke-width:1;stroke-dasharray:1,3"/><path id="UploadLinuxFx-Finish" fill="none" d="M763.4696,344.0008 C736.8148,363.5603 694.6949,394.4685 669.6631,412.8371" style="stroke:#a80036;stroke-width:1;stroke-dasharray:1,3"/><path id="SignMac-Finish" fill="none" d="M1178.7577,248.1981 C1189.7769,256.6671 1201.0322,267.8056 1207,281 C1220.0043,309.7514 1227.753,328.2289 1207,352 C1170.7914,393.4746 766.3013,420.8023 669.6513,426.769" style="stroke:#a80036;stroke-width:1;stroke-dasharray:1,3"/><path id="BuildCG-Finish" fill="none" d="M190.225,343.0725 C322.2661,367.5157 557.1017,410.988 628.1004,424.1311" style="stroke:#a80036;stroke-width:1;stroke-dasharray:1,3"/><path id="BuildLinuxFxSdk-Finish" fill="none" d="M901.9738,342.8178 C895.8115,346.0763 889.271,349.3099 883,352 C806.6497,384.7522 711.241,411.6069 669.8065,422.6196" style="stroke:#a80036;stroke-width:1;stroke-dasharray:1,3"/><path id="BuildWinFxSdk-Finish" fill="none" d="M998.6728,344.0068 C991.8845,346.9142 984.799,349.715 978,352 C864.3635,390.1909 722.3355,415.8635 669.7903,424.6471" style="stroke:#a80036;stroke-width:1;stroke-dasharray:1,3"/><path id="Start-BuildDEB" fill="none" d="M605.1915,34.555 C631.3424,39.6499 682.1488,53.7813 704,89 C728.7911,128.957 695.1436,183.8392 673.9381,211.8901" style="stroke:#a80036;stroke-width:1;stroke-dasharray:1,3"/><path id="Start-BuildRPM" fill="none" d="M605.4616,32.9734 C636.5216,35.7876 703.3936,46.709 734,89 C760.5934,125.7458 752.9289,183.0172 746.6319,211.9584" style="stroke:#a80036;stroke-width:1;stroke-dasharray:1,3"/><path id="Start-BuildAlpine" fill="none" d="M605.262,37.5941 C625.3815,45.5001 658.7237,62.0596 673,89 C687.7756,116.8825 689.9914,133.4097 673,160 C658.7592,182.2858 641.0757,170.4356 619,185 C607.3023,192.7176 595.5848,203.0876 586.4365,211.9277" style="stroke:#a80036;stroke-width:1;stroke-dasharray:1,3"/><path id="Start-BuildLinuxFx" fill="none" d="M605.0538,33.8854 C638.2892,38.4343 715.9519,52.4659 769,89 C816.8891,121.9811 854.3134,181.4695 871.1992,211.5362" style="stroke:#a80036;stroke-width:1;stroke-dasharray:1,3"/><path id="Start-BuildMac" fill="none" d="M605.275,33.8769 C656.3175,39.9125 817.6698,60.1256 949,89 C984.8646,96.8852 1024.6146,108.1352 1055.3984,117.4139" style="stroke:#a80036;stroke-width:1;stroke-dasharray:1,3"/><path id="Start-BuildWinX64" fill="none" d="M572.7699,33.7743 C518.1285,39.9525 341.5179,61.6426 292,89 C280.4011,95.4081 270.1846,106.1662 262.7327,115.5568" style="stroke:#a80036;stroke-width:1;stroke-dasharray:1,3"/><path id="Start-BuildWinX86" fill="none" d="M572.8475,32.986 C508.911,37.1057 273.8806,54.3615 209,89 C197.2525,95.2717 187.1368,106.2709 179.8923,115.8247" style="stroke:#a80036;stroke-width:1;stroke-dasharray:1,3"/><path id="Start-BuildWinFx" fill="none" d="M572.8313,37.0592 C544.8919,46.0382 486.0512,65.9952 439,89 C422.9254,96.8594 405.8053,107.1356 392.085,115.8834" style="stroke:#a80036;stroke-width:1;stroke-dasharray:1,3"/><path id="Start-BuildWinArm32" fill="none" d="M589,56.1726 C589,74.4352 589,99.1139 589,115.7442" style="stroke:#a80036;stroke-width:1;stroke-dasharray:1,3"/><path id="Start-BuildWinArm64" fill="none" d="M572.9333,48.3881 C554.8243,66.8592 525.4712,96.7994 506.7124,115.9333" style="stroke:#a80036;stroke-width:1;stroke-dasharray:1,3"/><path id="Start-BuildCG" fill="none" d="M572.8205,32.8394 C494.8461,37.0363 160.2652,56.828 128,89 C68.234,148.5934 84.5296,263.2031 93.7269,307.7046" style="stroke:#a80036;stroke-width:1;stroke-dasharray:1,3"/></g></svg>